<svg width="21" height="21" viewBox="0 0 21 21" xmlns="http://www.w3.org/2000/svg"><title>购物车</title><defs><path id="a" d="M5 6h12.444v12.444H5z"/></defs><g transform="translate(-.333 -.556)" fill="none" fill-rule="evenodd"><rect fill="#FF4800" x=".333" y=".556" width="21" height="21" rx="10.5"/><path d="M7.696 15.543a.755.755 0 1 1 0 1.511.755.755 0 0 1 0-1.51zm6.546 0a.755.755 0 1 1 0 1.511.755.755 0 0 1 0-1.51zm.398-1.417H7.567l-.545-5.123h8.4l-.782 5.123zm1.574-5.803a.41.41 0 0 0-.313-.143H6.935l-.193-1.812A.412.412 0 0 0 6.332 6H5v.823h.963l.825 7.759c.022.208.2.367.409.367h7.796a.411.411 0 0 0 .407-.35l.908-5.946a.41.41 0 0 0-.094-.33z" fill="#FFF"/></g></svg>